<?xml version="1.0" encoding="UTF-8"?>
<svg version="1.1" xmlns="http://www.w3.org/2000/svg" width="1024" height="1024">
<path d="M0 0 C337.92 0 675.84 0 1024 0 C1024 337.92 1024 675.84 1024 1024 C686.08 1024 348.16 1024 0 1024 C0 686.08 0 348.16 0 0 Z " fill="#FEFEFE" transform="translate(0,0)"/>
<path d="M0 0 C5.41325429 4.17786693 10.33628077 8.63107611 15.15067637 13.48101944 C15.91705152 14.24498018 16.68342668 15.00894091 17.47302532 15.79605198 C20.01774563 18.33517531 22.55530706 20.88132961 25.09290659 23.4275679 C26.92479594 25.25838337 28.75711838 27.08876557 30.58983958 28.91874832 C35.03682898 33.36071737 39.47849315 37.80797418 43.91833104 42.25709008 C49.096128 47.4453145 54.27919213 52.62826383 59.46244757 57.81103403 C68.71431607 67.0624028 77.96135769 76.31858111 87.20569956 85.57747024 C96.1626873 94.54854561 105.12316975 103.51611102 114.0875355 112.47981399 C114.63978134 113.03201988 115.19202718 113.58422576 115.76100774 114.15316515 C116.58798766 114.98008454 116.58798766 114.98008454 117.43167424 115.82370937 C127.6570941 126.04843819 137.87921631 136.27645823 148.09981639 146.50600473 C151.70565783 150.11485389 155.31246713 153.722734 158.91958582 157.33030647 C163.77956484 162.19104155 168.63672723 167.05457702 173.49206316 171.91994995 C175.27175695 173.70255744 177.05228903 175.48432847 178.83373034 177.26518959 C181.27007131 179.70103743 183.70330262 182.13995079 186.13578379 184.57965225 C186.83686216 185.27918201 187.53794052 185.97871177 188.26026368 186.69943941 C192.14008521 190.59822216 195.82248205 194.6084121 199.41724658 198.77091622 C201.56600839 201.22057403 203.83819663 203.52311921 206.15226328 205.8164534 C206.85423045 206.51441046 206.85423045 206.51441046 207.57037878 207.22646767 C209.10998088 208.75615867 210.65319777 210.28214736 212.19642222 211.80818313 C213.31273902 212.91601603 214.42878994 214.02411688 215.54459727 215.13246292 C217.93377465 217.5050181 220.32433579 219.87616699 222.71586573 222.24635071 C226.50288306 226.00054546 230.28377335 229.76087023 234.06333506 233.52256912 C234.70341978 234.15956737 235.34350449 234.79656562 236.00298572 235.45286685 C237.31102546 236.75459975 238.61905668 238.05634121 239.92707956 239.35809106 C248.71609249 248.10421438 257.50960108 256.84574112 266.31751597 265.57283157 C272.27461983 271.47536588 278.22270952 277.38682404 284.16073942 283.30854851 C287.2969261 286.43539129 290.4374903 289.55752991 293.58921778 292.66871399 C296.55334617 295.59481403 299.5054405 298.53254419 302.44899714 301.47933334 C303.52614584 302.55352861 304.60754229 303.62348535 305.69362986 304.68864197 C314.17102914 313.00995007 320.9840719 321.3387481 321.32874644 333.65632766 C321.20115272 344.28913739 316.70687253 352.82286332 309.35609019 360.27742141 C301.46939901 367.48143773 291.7528019 371.13792953 281.04359019 370.77742141 C261.81017458 369.03566702 249.47477216 353.21375468 236.64515269 340.32039016 C235.50865092 339.18201534 234.37192226 338.043867 233.23498118 336.90593094 C230.28057775 333.94776044 227.32918915 330.98660077 224.37849009 328.02473587 C221.37221669 325.00816526 218.36305544 321.99447835 215.35413706 318.98054641 C210.070782 313.68769465 204.78990499 308.39238193 199.5108906 303.09520096 C198.68765803 302.26974777 197.86442545 301.44429458 197.01624644 300.59382766 C196.2912646 299.84789352 195.56628275 299.10195938 194.81933177 298.33342117 C192.5028371 296.06939671 190.14421955 293.931284 187.71618235 291.79063553 C180.11673151 284.98363545 173.0051313 277.68042955 165.81727183 270.44490188 C164.19844701 268.81923613 162.57936543 267.19382604 160.96004832 265.56865066 C157.4896167 262.08495116 154.02062027 258.5998311 150.55264056 255.11369079 C145.06269131 249.59576525 139.56720892 244.08337291 134.07055247 238.57212967 C132.18406057 236.68049483 130.29757412 234.78885456 128.41109717 232.89720482 C127.93983427 232.42465588 127.46857137 231.95210695 126.98302777 231.46523836 C121.63562644 226.10314534 116.28912749 220.74015314 110.94324839 215.37654251 C110.45534677 214.88702614 109.96744515 214.39750978 109.46475863 213.89315958 C101.55351181 205.95536048 93.64789628 198.01197233 85.74387438 190.06697993 C77.60462665 181.88590591 69.45752891 173.71271382 61.30398709 165.54588467 C56.73592311 160.96976544 52.17162317 156.39002774 47.61614764 151.8013739 C43.33273357 147.48681314 39.04002064 143.18172585 34.74013674 138.88358063 C33.16897025 137.30972827 31.60121232 135.73246419 30.03724253 134.15146011 C16.2413782 119.95616619 16.2413782 119.95616619 -1.29625356 111.21882766 C-2.24113637 110.92234329 -3.18601919 110.62585891 -4.15953481 110.32039016 C-19.12652697 106.46996065 -34.36926762 108.35401231 -47.92924917 115.75909561 C-59.17323223 122.51295597 -68.26580877 132.56482871 -77.46812856 141.77742141 C-78.93757859 143.24297463 -80.40724827 144.70830765 -81.87712514 146.17343277 C-84.93966762 149.22855935 -87.9983671 152.28747115 -91.05455434 155.34895462 C-94.95166237 159.25186873 -98.86005168 163.14326499 -102.77162206 167.03167766 C-105.80365193 170.04891157 -108.82865836 173.0731126 -111.85174215 176.09930748 C-113.28936141 177.53641707 -114.7293128 178.97119799 -116.17173421 180.40348762 C-129.37461786 193.42522045 -129.37461786 193.42522045 -138.79625356 209.28132766 C-139.17394887 210.13081985 -139.55164419 210.98031204 -139.94078481 211.85554641 C-144.85501659 224.75770551 -145.09748232 240.82611891 -140.23765981 253.84773391 C-133.57192632 268.44589791 -121.71969553 278.99472428 -110.48106802 290.11482376 C-109.139471 291.44629503 -107.79814985 292.77804431 -106.4570812 294.11004776 C-103.58716962 296.95997755 -100.71590701 299.8085367 -97.84373319 302.65618652 C-93.29552178 307.16675257 -88.75401164 311.6840254 -84.21402395 316.20286697 C-83.44498953 316.968264 -82.67595512 317.73366103 -81.88361663 318.5222519 C-80.31217364 320.08629046 -78.74074659 321.65034502 -77.16933513 323.21441525 C-66.61348429 333.72044141 -56.05337089 344.22208241 -45.47472036 354.70515579 C-38.31848827 361.79683273 -31.17305542 368.89919774 -24.03976637 376.01395422 C-20.27272443 379.77035433 -16.50046915 383.52115444 -12.71488798 387.25887817 C-9.15511724 390.7738 -5.6098061 394.30269296 -2.07475698 397.84247154 C-0.78120864 399.13279305 0.51743525 400.41803127 1.82170641 401.69751304 C11.76259534 411.45801986 19.91411828 421.09772957 20.32874644 435.71882766 C20.19903916 446.42688409 15.58407876 454.55365995 8.49671519 462.24226516 C0.77665124 469.64300773 -8.73223239 472.32279428 -19.18492544 472.1150679 C-35.72541293 471.24147863 -46.20881794 458.65769743 -57.13170278 447.62532181 C-58.43490595 446.31663403 -59.73857918 445.00841421 -61.04268301 443.70062393 C-63.83641851 440.89722347 -66.62706256 438.090795 -69.41535985 435.2819857 C-73.83215921 430.8331919 -78.25726817 426.39272551 -82.68373525 421.95355362 C-93.675616 410.92769155 -104.65813235 399.89251473 -115.6357311 388.85243362 C-124.17292237 380.26668283 -132.71334878 371.68421208 -141.26439714 363.11225927 C-145.65745842 358.7077326 -150.04350585 354.2963783 -154.42427838 349.87963063 C-157.16018151 347.12441858 -159.90243214 344.3755909 -162.64641607 341.62842888 C-163.90872106 340.3621344 -165.16846606 339.09328148 -166.4253124 337.82156891 C-181.60525638 322.4687129 -198.17223223 309.54741781 -220.67125356 309.09382766 C-241.43217632 309.18307047 -255.39001797 319.92780329 -269.53599966 334.13142532 C-270.82219808 335.43378934 -272.10682006 336.73771178 -273.39000356 338.04304641 C-274.0457839 338.70899826 -274.70156423 339.3749501 -275.3772167 340.0610823 C-278.1023866 342.83169714 -280.82551995 345.60404776 -283.53404653 348.39094681 C-304.2410838 369.66560575 -304.2410838 369.66560575 -319.04893911 369.97371048 C-319.76992788 369.97209915 -320.49091665 369.97048782 -321.23375356 369.96882766 C-322.35874258 369.96641067 -322.35874258 369.96641067 -323.50645864 369.96394485 C-334.62593046 369.71916528 -343.53341552 364.68961841 -351.24156606 356.79304641 C-358.16536342 348.05291656 -360.99499155 338.5607749 -359.98375356 327.59382766 C-356.78833583 314.11829461 -347.15448788 305.46817403 -337.68806875 296.01725906 C-336.42471375 294.7487305 -335.16178682 293.4797755 -333.89924955 292.21043307 C-330.44018925 288.73530071 -326.97493529 285.26640348 -323.50857055 281.79855913 C-319.76664267 278.05291841 -316.0304191 274.3015946 -312.29336965 270.5510878 C-304.1272483 262.35785015 -295.95361925 254.17213003 -287.77833736 245.98803419 C-282.67178039 240.87594555 -277.56669736 235.76238673 -272.46187627 230.64856476 C-258.32122241 216.48353536 -244.17868361 202.3203939 -230.02922285 188.16416115 C-228.67198207 186.80626167 -228.67198207 186.80626167 -227.28732229 185.42092989 C-226.38036737 184.51353841 -225.47341245 183.60614693 -224.53897405 182.67125875 C-222.70122818 180.83262596 -220.86348542 178.99399007 -219.02574575 177.1553511 C-218.11416775 176.24333024 -217.20258975 175.33130938 -216.26338817 174.39165153 C-201.48812706 159.60849184 -186.72642615 144.81187049 -171.97051381 130.00940011 C-156.81225028 114.80369637 -141.64274736 99.60928147 -126.46191072 84.42611319 C-117.94197983 75.90434986 -109.42693614 67.37782785 -100.92427099 58.83883423 C-93.68566772 51.56941165 -86.43684551 44.3103763 -79.174565 37.06460445 C-75.47129818 33.36914364 -71.77301279 29.66904021 -68.08772123 25.95564598 C-64.71021537 22.55262123 -61.31901074 19.16388793 -57.91663124 15.78573741 C-56.69198653 14.56499958 -55.47233266 13.33922862 -54.25841032 12.10782777 C-40.11338933 -2.22778506 -19.16913959 -13.58793466 0 0 Z " fill="#A800FE" transform="translate(530.9837535619736,178.40617233514786)"/>
<path d="M0 0 C5.51104568 4.04562204 10.32063738 8.58758598 15.14394343 13.42152894 C16.00000788 14.27165114 16.85607232 15.12177334 17.73807812 15.99765682 C20.09497327 18.34028265 22.44738162 20.68724889 24.79788935 23.03627312 C27.34107346 25.57573236 29.88993265 28.10948556 32.43796504 30.64407837 C37.99902972 36.17807639 43.55262012 41.71953415 49.10457623 47.26266825 C52.57507412 50.72762654 56.04703802 54.19111331 59.51926005 57.65434372 C69.14461738 67.25533297 78.76809084 76.85820169 88.38466036 86.46799386 C88.99910078 87.08199514 89.61354119 87.69599642 90.24660101 88.3286038 C90.86244758 88.94401381 91.47829415 89.55942383 92.11280274 90.19348264 C93.36059646 91.44038944 94.60839328 92.68729313 95.85619318 93.93419373 C96.7846041 94.86194036 96.7846041 94.86194036 97.7317708 95.80842935 C107.76204348 105.83080518 117.8057543 115.83959757 127.85533138 125.84261288 C138.18844634 136.12824008 148.51021428 146.42514145 158.82077789 156.73337555 C164.60387646 162.51464445 170.39166952 168.29102924 176.19202769 174.05498612 C181.13021363 178.96228846 186.0578892 183.87985286 190.97241749 188.81085213 C193.47706316 191.32328106 195.98619175 193.83072764 198.50880587 196.32512581 C201.25092985 199.03685893 203.9691455 201.77180756 206.68569148 204.50917542 C207.87110276 205.67041749 207.87110276 205.67041749 209.08046174 206.85511899 C216.85332555 214.76735425 222.31579573 224.16206124 222.60033381 235.40880311 C222.41514817 250.63106245 213.2504394 260.20186475 202.9830395 270.39833558 C202.17415968 271.20962981 201.36527987 272.02092404 200.53188854 272.85680294 C197.84075395 275.55353916 195.14257821 278.2431138 192.44432795 280.93272889 C190.5045848 282.8724378 188.56634466 284.81364614 186.62802851 286.75478089 C181.9213627 291.46646902 177.20940484 296.17282978 172.4955923 300.8773668 C166.99951795 306.36301777 161.50871433 311.85393201 156.01809233 317.34503935 C146.21766652 327.14596498 136.41242944 336.94206297 126.6044842 346.73546326 C117.09988025 356.22597953 107.59878587 365.71999098 98.10155451 375.21788514 C97.51649168 375.80298793 96.93142884 376.38809072 96.32863683 376.9909239 C95.74455871 377.57504237 95.16048059 378.15916085 94.55870312 378.76097989 C83.72767901 389.59269493 72.89336395 400.42111295 62.05752181 411.24800799 C58.23376891 415.06875229 54.41098585 418.89046531 50.58851016 422.71248734 C45.92692899 427.37338435 41.26344867 432.03237195 36.59763379 436.6890309 C34.21972193 439.06234543 31.8428516 441.4366774 29.46760142 443.81265748 C26.88724484 446.3935068 24.30382383 448.97124992 21.71961176 451.54823792 C20.97728157 452.29211671 20.23495138 453.03599551 19.47012633 453.80241609 C9.25051426 463.97504189 -0.09490783 472.75033534 -15.02466619 474.15880311 C-33.8779025 472.56107122 -45.70850759 460.00029732 -58.42914617 447.27649415 C-59.24608394 446.46323306 -60.06302172 445.64997198 -60.90471518 444.81206661 C-63.61208397 442.11561643 -66.31595461 439.41568739 -69.01978338 436.71568787 C-70.97164713 434.76957536 -72.92421274 432.82416748 -74.87670171 430.87868226 C-80.70762965 425.06738174 -86.53383371 419.25135665 -92.35941482 413.43469694 C-94.55749888 411.240129 -96.75589729 409.04587611 -98.95431201 406.85163941 C-108.65902511 397.16536819 -118.36239382 387.47775253 -128.06174123 377.78610814 C-130.42746576 375.4222931 -132.79319574 373.05848353 -135.15894353 370.69469178 C-135.746847 370.10727206 -136.33475046 369.51985233 -136.94046918 368.91463201 C-146.4767577 359.38665452 -156.02154252 349.86723582 -165.56988069 340.35133529 C-175.39301726 330.56129662 -185.20858204 320.76371797 -195.0167805 310.95871311 C-200.51602705 305.46162753 -206.01849226 299.96785219 -211.52944982 294.48250496 C-216.2185406 289.81515729 -220.90070085 285.14099301 -225.57407835 280.45790965 C-227.95566644 278.07178929 -230.34131433 275.69015356 -232.73380888 273.31494057 C-235.33296253 270.73351181 -237.91939968 268.13995779 -240.50312078 265.54309571 C-241.25312124 264.80406449 -242.00312171 264.06503327 -242.77584946 263.30360717 C-251.59633986 254.37483295 -257.43765645 244.13310629 -258.14966619 231.40880311 C-257.64235208 219.59261199 -251.77003331 210.37969571 -243.33716619 202.53380311 C-234.60034943 195.43390687 -224.65674442 193.96727024 -213.71216619 194.84630311 C-199.74423271 198.01260927 -190.8119484 208.47846997 -181.12696111 218.26793396 C-179.76480023 219.63721614 -178.40216214 221.00602372 -177.03908575 222.37439454 C-174.11497539 225.31156017 -171.19391272 228.25171141 -168.27511442 231.19415581 C-163.65297602 235.85303241 -159.02201889 240.50307565 -154.38948858 245.15161622 C-141.22117607 258.36811545 -128.06470367 271.59636365 -114.91700017 284.83336365 C-107.6475579 292.15202218 -100.37085069 299.46338018 -93.08639067 306.76709193 C-88.4865495 311.37996254 -83.89584049 316.00166995 -79.31183887 320.63027859 C-76.44971577 323.51598485 -73.57914556 326.3931738 -70.70620573 329.26810753 C-69.38335648 330.59522475 -68.06391794 331.92575259 -66.74831808 333.26005661 C-52.41446995 347.78962457 -37.8340419 357.92152528 -16.89966619 358.15880311 C9.59335282 358.02331666 24.36810092 341.92117598 41.92845881 324.44395936 C42.66201342 323.71448027 43.39556803 322.98500119 44.15135157 322.23341668 C48.02562638 318.37985703 51.89672014 314.52313337 55.76537287 310.66393006 C59.73995731 306.70044838 63.72609519 302.7487974 67.7148701 298.79960454 C70.80320017 295.73749348 73.88254032 292.66645861 76.95957911 289.5930053 C78.42490541 288.13252214 79.89358301 286.67539279 81.36578333 285.22183907 C96.52713886 270.2408363 106.0826532 255.47895941 106.60033381 233.53380311 C106.17441155 208.6549321 91.61571466 194.99375851 75.06053889 178.55309021 C73.74852447 177.24628027 72.43675886 175.93922049 71.12522089 174.63193238 C68.31929252 171.83587914 65.51189866 169.0413089 62.70340121 166.24783623 C58.25731941 161.82497992 53.81625729 157.39710608 49.37613642 152.96826661 C36.75606624 140.38149977 24.13176354 127.79899952 11.49706233 115.22691834 C4.50470874 108.26913626 -2.48223435 101.30596826 -9.46325225 94.3368122 C-13.87039554 89.93773999 -18.28401039 85.54530157 -22.70257068 81.15769863 C-25.45333347 78.42299881 -28.19771996 75.68196858 -30.9403671 72.93913186 C-32.20751826 71.67439173 -33.47722879 70.41220953 -34.7497524 69.15287507 C-45.71994836 58.29161457 -55.55810442 47.61859238 -56.27466619 31.40880311 C-55.96580185 22.13184217 -52.13306312 12.65210394 -45.71216619 5.84630311 C-33.28162254 -5.43680575 -14.711716 -9.91309206 0 0 Z " fill="#512AFE" transform="translate(528.7121661901474,378.1536968946457)"/>
<path d="M0 0 C4.58194928 3.83436159 8.94447958 7.80082511 13.15672302 12.03646851 C13.73440133 12.61329239 14.31207963 13.19011626 14.90726334 13.78441966 C16.8226337 15.69815629 18.73443206 17.61542012 20.64624023 19.53271484 C22.02635062 20.91310758 23.4066818 22.2932796 24.78721619 23.67324829 C28.52032965 27.40607566 32.2503588 31.14197118 35.9798305 34.87843657 C39.88311961 38.78799049 43.78925384 42.69469971 47.69508362 46.60171509 C55.08462926 53.99436483 62.47162275 61.38955928 69.85769659 68.78567755 C78.26926232 77.20843304 86.68367859 85.62833835 95.09833229 94.04800868 C112.40205575 111.36217567 129.70220689 128.6799084 147 146 C146.34 146.66 145.68 147.32 145 148 C143.16052663 146.21427748 141.32842259 144.42197551 139.5 142.625 C138.97535156 142.11710938 138.45070313 141.60921875 137.91015625 141.0859375 C136.56846819 139.76167396 135.28004185 138.38394135 134 137 C134 136.34 134 135.68 134 135 C133.443125 134.773125 132.88625 134.54625 132.3125 134.3125 C126.11596021 130.79554499 121.33713075 124.06668722 116.55273438 118.8203125 C115.71645508 117.91152344 115.71645508 117.91152344 114.86328125 116.984375 C114.36094971 116.43491211 113.85861816 115.88544922 113.34106445 115.31933594 C112.0147736 113.87885796 112.0147736 113.87885796 110 113 C110 112.34 110 111.68 110 111 C109.13375 110.62875 109.13375 110.62875 108.25 110.25 C105.67060021 108.81700012 103.93878408 107.21575324 102 105 C102 104.34 102 103.68 102 103 C100.515 102.505 100.515 102.505 99 102 C99 101.34 99 100.68 99 100 C98.34 100 97.68 100 97 100 C97 99.34 97 98.68 97 98 C96.34 98 95.68 98 95 98 C93.63823078 96.35648543 92.31037934 94.68477344 91 93 C89.3563186 91.31066078 87.6857124 89.64740076 86 88 C85.37738281 87.36707031 84.75476563 86.73414063 84.11328125 86.08203125 C81.10886481 83.03183323 78.13040137 80.02325963 74.8125 77.3125 C72.01625567 75.01336578 69.4495938 72.66573442 67 70 C67 69.34 67 68.68 67 68 C66.34 68 65.68 68 65 68 C63.59121704 66.57121277 63.59121704 66.57121277 61.93994141 64.57104492 C57.84391222 59.75760635 53.44255225 55.31602796 48.9609375 50.86328125 C48.11705475 50.02081345 47.273172 49.17834564 46.40371704 48.31034851 C43.72983728 45.64202097 41.05249171 42.97720268 38.375 40.3125 C36.57008012 38.51260279 34.76539046 36.71247468 32.9609375 34.91210938 C28.944674 30.90572624 24.92619285 26.90158346 20.90557861 22.89956665 C19.28918928 21.28827691 17.67712518 19.67285641 16.06689453 18.05541992 C14.27124176 16.26973593 12.44692912 14.61631851 10.5 13 C7.5109253 10.47328762 4.72998382 7.80798336 2 5 C1.34 4.34 0.68 3.68 0 3 C0 2.01 0 1.02 0 0 Z " fill="#8F14FD" transform="translate(578,225)"/>
<path d="M0 0 C2.92481411 1.32118546 4.99524855 2.74695423 7.25669861 5.01618958 C7.87761887 5.6343605 8.49853912 6.25253143 9.13827515 6.88943481 C9.80799347 7.56634369 10.47771179 8.24325256 11.16772461 8.94067383 C11.88204147 9.65469864 12.59635834 10.36872345 13.33232117 11.10438538 C15.69376656 13.46722451 18.04804477 15.83707321 20.40234375 18.20703125 C22.04330981 19.85172919 23.68471929 21.49598482 25.32655334 23.13981628 C29.65106798 27.4719694 33.96954811 31.81008997 38.2868042 36.1494751 C42.6713375 40.55440205 47.06147186 44.95373857 51.45117188 49.35351562 C58.54663702 56.46656666 65.63862886 63.5830588 72.72619629 70.70397949 C75.42175701 73.41203105 78.11865389 76.11864491 80.8205719 78.82035828 C82.2755398 80.27546879 83.72467896 81.73643051 85.16796875 83.203125 C85.83441406 83.87859375 86.50085938 84.5540625 87.1875 85.25 C87.86167969 85.93578125 88.53585937 86.6215625 89.23046875 87.328125 C90.90798995 89.07449111 90.90798995 89.07449111 93 90 C93 90.66 93 91.32 93 92 C93.66 92 94.32 92 95 92 C96.65625 93.71484375 96.65625 93.71484375 98.5 95.9375 C100.88926999 98.92045179 100.88926999 98.92045179 104 101 C104 101.66 104 102.32 104 103 C104.53012695 103.20415527 105.06025391 103.40831055 105.60644531 103.61865234 C109.01187557 105.58396491 111.56304917 108.31822309 114.296875 111.1015625 C114.89050842 111.69802582 115.48414185 112.29448914 116.09576416 112.9090271 C117.98526627 114.8096981 119.86768392 116.71721474 121.75 118.625 C123.03209065 119.91712468 124.31463761 121.20879676 125.59765625 122.5 C128.73708432 125.66144479 131.87017801 128.8290461 135 132 C134.34 132.66 133.68 133.32 133 134 C115.65592735 116.67925177 98.31469124 99.35566816 80.97686005 82.02867222 C72.92717144 73.98414754 64.87654496 65.9405656 56.82373047 57.89916992 C49.80775087 50.89313421 42.79351029 43.88536301 35.78138304 36.87547153 C32.06589218 33.16128828 28.34951565 29.44800078 24.63105774 25.7367878 C21.13568576 22.24817137 17.64263255 18.75725046 14.15139198 15.26449966 C12.86544889 13.97883311 11.57863991 12.69403199 10.29092979 11.41013527 C8.54138552 9.66552099 6.794901 7.91790186 5.04919434 6.16944885 C4.53169821 5.65486557 4.01420209 5.14028229 3.48102427 4.61010557 C0 1.11412121 0 1.11412121 0 0 Z " fill="#8207FC" transform="translate(587,338)"/>
<path d="M0 0 C5.12013226 1.48446095 7.9986778 4.61030787 11.61328125 8.3203125 C12.22769577 8.93897186 12.84211029 9.55763123 13.47514343 10.19503784 C15.42810705 12.16473969 17.37035675 14.1446341 19.3125 16.125 C20.63797757 17.46553062 21.96414204 18.80538241 23.29101562 20.14453125 C26.5353552 23.42187569 29.77012828 26.70839889 33 30 C32.34 30.66 31.68 31.32 31 32 C26.58165052 27.60691362 22.16715378 23.20998376 17.75537109 18.81030273 C16.25268527 17.31265948 14.74910507 15.81591309 13.24462891 14.32006836 C11.08783449 12.17534291 8.93423049 10.0274594 6.78125 7.87890625 C6.10316284 7.20598038 5.42507568 6.5330545 4.72644043 5.83973694 C3.79547546 4.90888527 3.79547546 4.90888527 2.84570312 3.95922852 C2.29499146 3.41073746 1.74427979 2.8622464 1.17687988 2.2971344 C0 1 0 1 0 0 Z " fill="#971CFD" transform="translate(689,440)"/>
<path d="M0 0 C3.04332765 1.3584202 5.12309151 2.88463024 7.453125 5.2578125 C8.071875 5.88300781 8.690625 6.50820312 9.328125 7.15234375 C9.96234375 7.80332031 10.5965625 8.45429688 11.25 9.125 C11.8996875 9.78371094 12.549375 10.44242188 13.21875 11.12109375 C14.81711727 12.74296643 16.41061897 14.3693281 18 16 C17.34 16.66 16.68 17.32 16 18 C13.32529045 15.38308836 10.66165519 12.75518292 8 10.125 C7.236875 9.37863281 6.47375 8.63226563 5.6875 7.86328125 C4.965625 7.14785156 4.24375 6.43242187 3.5 5.6953125 C2.8296875 5.03547363 2.159375 4.37563477 1.46875 3.69580078 C0 2 0 2 0 0 Z " fill="#9A19FD" transform="translate(560,208)"/>
<path d="M0 0 C-3.2870757 3.81300782 -6.39727838 5.22972246 -11 7 C-11 5.68 -11 4.36 -11 3 C-7.14243493 0.84694043 -4.44870215 -0.39253254 0 0 Z " fill="#4126FD" transform="translate(546,729)"/>
</svg>
